# Made in Blockbench 4.2.4
mtllib Jorge_Alen_block.mtl

o cube
v 0.25 -0.484375 0.375
v 0.25 -0.484375 -0.3125
v 0.25 -0.5 0.375
v 0.25 -0.5 -0.3125
v -0.1875 -0.484375 -0.3125
v -0.1875 -0.484375 0.375
v -0.1875 -0.5 -0.3125
v -0.1875 -0.5 0.375
vt 0 0.5549737794502623
vt 0.02650523560209425 0.5549737794502623
vt 0.02650523560209425 0.6178828108638743
vt 0 0.6178828108638743
vt 0 0.6439792931937174
vt 0.038612565445026226 0.6439792931937174
vt 0.038612565445026226 0.7775689528795812
vt 0 0.7775689528795812
vt 0 0.759162585078534
vt 0.029123036649214673 0.759162585078534
vt 0.029123036649214673 0.6702391557591625
vt 0 0.6702391557591625
vt 0 0.8979059947643979
vt 0.022905759162303488 0.8979059947643979
vt 0.022905759162303488 0.7723333507853403
vt 0 0.7723333507853403
vt 0.900850625 0
vt 0.060209375 0
vt 0.060209375 0.973821875
vt 0.900850625 0.973821875
vt 0.605039375 0.039266875000000034
vt 0.180628125 0.039266875000000034
vt 0.180628125 0.17473812499999997
vt 0.605039375 0.17473812499999997
vn 0 0 -1
vn 1 0 0
vn 0 0 1
vn -1 0 0
vn 0 1 0
vn 0 -1 0
usemtl m_0
f 4/4/1 7/3/1 5/2/1 2/1/1
f 3/8/2 4/7/2 2/6/2 1/5/2
f 8/12/3 3/11/3 1/10/3 6/9/3
f 7/16/4 8/15/4 6/14/4 5/13/4
f 6/20/5 1/19/5 2/18/5 5/17/5
f 7/24/6 4/23/6 3/22/6 8/21/6